<?xml version="1.0" standalone="no"?>
<!DOCTYPE svg PUBLIC "-//W3C//DTD SVG 20010904//EN"
 "http://www.w3.org/TR/2001/REC-SVG-20010904/DTD/svg10.dtd">
<svg version="1.0" xmlns="http://www.w3.org/2000/svg"
 width="512.000000pt" height="512.000000pt" viewBox="0 0 512.000000 512.000000"
 preserveAspectRatio="xMidYMid meet">
<metadata>
Created by potrace 1.14, written by Peter Selinger 2001-2017
</metadata>
<g transform="translate(0.000000,512.000000) scale(0.100000,-0.100000)"
fill="#000000" stroke="none">
<path d="M1939 5102 c-146 -55 -256 -174 -368 -399 -58 -117 -146 -343 -171
-442 -5 -20 -18 -72 -30 -116 -12 -44 -24 -89 -26 -100 -12 -57 -37 -192 -39
-205 -2 -14 -14 -112 -19 -152 -3 -26 -10 -30 -58 -34 -318 -29 -573 -171
-772 -429 -215 -278 -329 -614 -277 -815 60 -229 260 -407 542 -481 91 -23
272 -33 367 -20 60 8 58 12 36 -79 -23 -96 -25 -284 -3 -410 26 -155 83 -317
151 -430 12 -19 26 -44 32 -55 6 -11 23 -38 37 -60 31 -47 53 -94 74 -154 23
-67 21 -76 -22 -75 -251 3 -444 -194 -446 -457 -1 -99 16 -140 73 -171 34 -18
78 -18 1270 -15 l1235 3 80 22 c221 62 344 160 472 377 6 11 17 18 25 16 7 -2
42 -13 78 -23 36 -11 103 -21 150 -23 171 -8 307 43 420 156 82 82 82 83 125
171 48 98 76 210 78 311 1 107 -7 156 -39 227 -104 232 -380 217 -649 -35 -33
-31 -65 -60 -71 -66 -7 -6 -11 1 -11 24 1 43 -14 240 -18 247 -2 3 -6 30 -10
60 -15 128 -76 327 -137 453 -187 383 -535 655 -1048 822 -99 32 -332 91 -395
100 -11 2 -65 11 -120 20 -55 9 -113 18 -130 20 -133 17 -125 13 -126 53 -1
50 -4 80 -13 124 -4 21 -6 39 -6 40 3 7 -54 154 -70 183 l-18 33 26 13 c141
71 423 292 602 471 124 125 263 286 291 340 7 13 15 25 18 28 12 9 79 144 102
205 19 47 24 80 24 155 0 84 -3 101 -27 150 -65 130 -180 211 -319 223 -85 8
-229 -41 -336 -114 -46 -32 -43 -34 -59 41 -32 159 -174 275 -351 285 -58 4
-89 0 -124 -13z"/>
</g>
</svg>
